<?xml version="1.0" encoding="UTF-8"?>
<svg xmlns="http://www.w3.org/2000/svg" viewBox="0 0 580 260" width="580" height="260" role="img" aria-labelledby="t d">
  <title id="t">Cross-section of a leaf</title>
  <desc id="d">A leaf drawn in section. Sunlight arrives from above; the palisade layer near the top is packed with chloroplasts; stomata on the underside let carbon dioxide in and oxygen out; veins carry water in and sugar away.</desc>
  <defs>
    <linearGradient id="sky" x1="0" y1="0" x2="0" y2="1"><stop offset="0" stop-color="#fdf6d8"/><stop offset="1" stop-color="#ffffff"/></linearGradient>
  </defs>
  <rect width="580" height="260" fill="url(#sky)"/>
  <g stroke="#b8862b" stroke-width="2" fill="none">
    <line x1="60" y1="18" x2="60" y2="58"/><line x1="120" y1="18" x2="120" y2="58"/><line x1="180" y1="18" x2="180" y2="58"/>
    <polyline points="54,50 60,58 66,50"/><polyline points="114,50 120,58 126,50"/><polyline points="174,50 180,58 186,50"/>
  </g>
  <text x="200" y="40" font-family="sans-serif" font-size="13" fill="#5a6472">sunlight</text>
  <rect x="40" y="70" width="400" height="18" fill="#dfeadb" stroke="#3b6b3a"/>
  <rect x="40" y="88" width="400" height="52" fill="#a9d18e" stroke="#3b6b3a"/>
  <g fill="#2f7a2b">
    <circle cx="62" cy="100" r="4"/><circle cx="62" cy="116" r="4"/><circle cx="62" cy="130" r="4"/>
    <circle cx="90" cy="100" r="4"/><circle cx="90" cy="116" r="4"/><circle cx="90" cy="130" r="4"/>
    <circle cx="118" cy="100" r="4"/><circle cx="118" cy="116" r="4"/><circle cx="118" cy="130" r="4"/>
    <circle cx="146" cy="100" r="4"/><circle cx="146" cy="116" r="4"/><circle cx="146" cy="130" r="4"/>
    <circle cx="174" cy="100" r="4"/><circle cx="174" cy="116" r="4"/><circle cx="174" cy="130" r="4"/>
    <circle cx="202" cy="100" r="4"/><circle cx="202" cy="116" r="4"/><circle cx="202" cy="130" r="4"/>
    <circle cx="230" cy="100" r="4"/><circle cx="230" cy="116" r="4"/><circle cx="230" cy="130" r="4"/>
    <circle cx="258" cy="100" r="4"/><circle cx="258" cy="116" r="4"/><circle cx="258" cy="130" r="4"/>
    <circle cx="286" cy="100" r="4"/><circle cx="286" cy="116" r="4"/><circle cx="286" cy="130" r="4"/>
    <circle cx="314" cy="100" r="4"/><circle cx="314" cy="116" r="4"/><circle cx="314" cy="130" r="4"/>
    <circle cx="342" cy="100" r="4"/><circle cx="342" cy="116" r="4"/><circle cx="342" cy="130" r="4"/>
    <circle cx="370" cy="100" r="4"/><circle cx="370" cy="116" r="4"/><circle cx="370" cy="130" r="4"/>
    <circle cx="398" cy="100" r="4"/><circle cx="398" cy="116" r="4"/><circle cx="398" cy="130" r="4"/>
  </g>
  <rect x="40" y="140" width="400" height="60" fill="#cfe6c0" stroke="#3b6b3a"/>
  <ellipse cx="240" cy="170" rx="34" ry="16" fill="#e8c26a" stroke="#8a5a10"/>
  <rect x="40" y="200" width="400" height="16" fill="#dfeadb" stroke="#3b6b3a"/>
  <rect x="150" y="200" width="24" height="16" fill="#ffffff" stroke="#3b6b3a"/>
  <rect x="330" y="200" width="24" height="16" fill="#ffffff" stroke="#3b6b3a"/>
  <g font-family="sans-serif" font-size="12" fill="#1c2430">
    <text x="448" y="83">upper surface</text>
    <text x="448" y="118">palisade cells</text>
    <text x="448" y="172">vein</text>
    <text x="448" y="213">stoma</text>
    <text x="100" y="252">CO₂ in</text>
    <text x="352" y="252">O₂ out</text>
  </g>
  <g stroke="#1c2430" stroke-width="1.5" fill="none">
    <line x1="162" y1="238" x2="162" y2="218"/><polyline points="157,224 162,218 167,224"/>
    <line x1="342" y1="218" x2="342" y2="238"/><polyline points="337,232 342,238 347,232"/>
  </g>
</svg>
